<svg width="512" height="512" viewBox="0 0 512 512" fill="none" xmlns="http://www.w3.org/2000/svg">
<rect x="24.7176" y="371.301" width="274.045" height="109.618" rx="6" transform="rotate(-60 24.7176 371.301)" fill="#696969"/>
<rect x="6" y="376.316" width="274.045" height="109.618" rx="6" transform="rotate(-60 6 376.316)" fill="url(#paint0_linear_1_16)"/>
<rect x="114.998" y="299.569" width="274.045" height="109.618" rx="6" transform="rotate(-45 114.998 299.569)" fill="#696969"/>
<rect x="95.6196" y="299.569" width="274.045" height="109.618" rx="6" transform="rotate(-45 95.6196 299.569)" fill="url(#paint1_linear_1_16)"/>
<rect x="213.861" y="223.889" width="274.045" height="109.618" rx="6" transform="rotate(-30 213.861 223.889)" fill="#696969"/>
<rect x="195.144" y="218.874" width="274.045" height="109.618" rx="6" transform="rotate(-30 195.144 218.874)" fill="url(#paint2_linear_1_16)"/>
<defs>
<linearGradient id="paint0_linear_1_16" x1="6" y1="485.934" x2="280.045" y2="376.316" gradientUnits="userSpaceOnUse">
<stop stop-color="#66CC8A"/>
<stop offset="1" stop-color="#2E8B57"/>
</linearGradient>
<linearGradient id="paint1_linear_1_16" x1="95.6196" y1="409.187" x2="369.664" y2="299.569" gradientUnits="userSpaceOnUse">
<stop stop-color="#66CC8A"/>
<stop offset="1" stop-color="#2E8B57"/>
</linearGradient>
<linearGradient id="paint2_linear_1_16" x1="195.144" y1="328.491" x2="469.188" y2="218.874" gradientUnits="userSpaceOnUse">
<stop stop-color="#66CC8A"/>
<stop offset="1" stop-color="#2E8B57"/>
</linearGradient>
</defs>
</svg>
